<?xml version="1.0" encoding="UTF-8" standalone="no"?><!DOCTYPE svg PUBLIC "-//W3C//DTD SVG 1.1//EN" "http://www.w3.org/Graphics/SVG/1.1/DTD/svg11.dtd"><svg width="100%" height="100%" viewBox="0 0 2363 2363" version="1.1" xmlns="http://www.w3.org/2000/svg" xmlns:xlink="http://www.w3.org/1999/xlink" xml:space="preserve" xmlns:serif="http://www.serif.com/" style="fill-rule:evenodd;clip-rule:evenodd;stroke-linejoin:round;stroke-miterlimit:2;"><path d="M2065.36,1822.43c0,-109.144 75.534,-200.986 178.736,-229.844l0,-870.241c-39.059,-10.948 -74.065,-30.817 -102.574,-57.376l-779.367,435.222c4.612,18.382 7.407,37.507 7.407,57.241c-0,109.143 -75.533,201.054 -178.736,229.843l-0,870.309c39.059,10.881 74.065,30.817 102.574,57.309l779.367,-435.155c-4.681,-18.382 -7.407,-37.507 -7.407,-57.308" style="fill:#dbe600;fill-rule:nonzero;"/><path d="M874.535,1157.47c-0,-19.801 2.725,-38.927 7.406,-57.309l-779.367,-435.155c-28.508,26.492 -63.515,46.429 -102.574,57.309l0,870.309c103.203,28.79 178.736,120.7 178.736,229.843c0,19.734 -2.795,38.86 -7.407,57.242l779.368,435.222c28.508,-26.56 63.515,-46.428 102.574,-57.377l-0,-870.241c-103.203,-28.857 -178.736,-120.7 -178.736,-229.843" style="fill:#d3c9c7;fill-rule:nonzero;"/><path d="M2072.79,435.222l-779.367,-435.222c-44.51,41.36 -104.81,66.905 -171.4,66.905c-66.519,0 -126.89,-25.545 -171.329,-66.905l-779.368,435.222c4.682,18.382 7.407,37.508 7.407,57.309c0,19.734 -2.725,38.859 -7.407,57.241l779.368,435.222c44.439,-41.36 104.81,-66.905 171.329,-66.905c66.59,-0 126.89,25.545 171.4,66.905l779.367,-435.222c-4.682,-18.382 -7.407,-37.507 -7.407,-57.241c0,-19.801 2.725,-38.927 7.407,-57.309" style="fill:#007db5;fill-rule:nonzero;"/></svg>