<?xml version="1.0" encoding="utf-8"?>
<!-- Generator: Adobe Illustrator 24.0.1, SVG Export Plug-In . SVG Version: 6.00 Build 0)  -->
<svg version="1.1" id="Layer_1" xmlns="http://www.w3.org/2000/svg" xmlns:xlink="http://www.w3.org/1999/xlink" x="0px" y="0px"
	 viewBox="0 0 185 188" style="enable-background:new 0 0 185 188;" xml:space="preserve">
<style type="text/css">
	.st0{fill:url(#SVGID_1_);}
	.st1{fill:url(#SVGID_2_);}
	.st2{fill:url(#SVGID_3_);}
	.st3{fill:url(#SVGID_4_);}
	.st4{font-family:'Silom';}
	.st5{font-size:19.4124px;}
	.st6{fill:none;}
	.st7{fill:url(#SVGID_5_);}
	.st8{fill:url(#SVGID_6_);}
	.st9{fill:url(#SVGID_7_);}
	.st10{fill:url(#SVGID_8_);}
	.st11{fill:#666666;}
	.st12{font-size:19.4794px;}
	.st13{fill:url(#SVGID_9_);}
	.st14{fill:url(#SVGID_10_);}
	.st15{fill:url(#SVGID_11_);}
	.st16{fill:url(#SVGID_12_);}
	.st17{fill:#E6E6E6;}
</style>
<g>
	
		<radialGradient id="SVGID_1_" cx="-95.8614" cy="-53.3649" r="20.1129" gradientTransform="matrix(0.6709 0 0 -0.498 87.7654 23.2568)" gradientUnits="userSpaceOnUse">
		<stop  offset="0" style="stop-color:#FFCF4F"/>
		<stop  offset="1" style="stop-color:#F4C236"/>
	</radialGradient>
	<path class="st0" d="M11.7,61h9.1c2.2,0,4.9-1.1,6-2.5l7.7-9.5c0.9-1.4,0.9-3.4-0.2-4.7l-4.6-5.6L11.7,61z"/>
	
		<radialGradient id="SVGID_2_" cx="-107.9132" cy="-43.151" r="27.6571" gradientTransform="matrix(0.6709 0 0 -0.498 87.7654 23.2568)" gradientUnits="userSpaceOnUse">
		<stop  offset="0" style="stop-color:#08A960"/>
		<stop  offset="1" style="stop-color:#07914B"/>
	</radialGradient>
	<path class="st1" d="M21.5,33.5L1.2,58.8c-0.8,1.2,0,2.2,2,2.2h8.5l18.1-22.3l-8.3-10.2C22.7,29.9,22.7,32.1,21.5,33.5"/>
	
		<radialGradient id="SVGID_3_" cx="-98.4626" cy="-3.4693" r="40.5382" gradientTransform="matrix(0.6709 0 0 -0.498 87.7654 23.2568)" gradientUnits="userSpaceOnUse">
		<stop  offset="0" style="stop-color:#567FC0"/>
		<stop  offset="1" style="stop-color:#557FC0"/>
	</radialGradient>
	<path class="st2" d="M3.2,1c-2.2,0-3,1.1-1.9,2.5l33,40.7c1,1.3,1.1,3.3,0.2,4.7l8-9.9L11.7,1H3.2z"/>
	
		<radialGradient id="SVGID_4_" cx="-86.3973" cy="6.4946" r="33.0576" gradientTransform="matrix(0.6709 0 0 -0.498 87.7654 23.2568)" gradientUnits="userSpaceOnUse">
		<stop  offset="0" style="stop-color:#E14C40"/>
		<stop  offset="1" style="stop-color:#CD392D"/>
	</radialGradient>
	<path class="st3" d="M11.7,1l30.9,38l4.5-5.5c1.1-1.4,1.1-3.6,0-5l-20.2-25C25.7,2.1,23,1,20.9,1H11.7z"/>
	<text transform="matrix(1.3472 0 0 1 65.1162 26.3154)" class="st4 st5">INASCON</text>
	<rect x="122.9" y="60.5" class="st6" width="3.7" height="0.5"/>
	<text transform="matrix(1.3472 0 0 1 92.8369 46.0767)" class="st4 st5">2021</text>
</g>
<g>
	
		<radialGradient id="SVGID_5_" cx="-95.8614" cy="-179.8709" r="20.1129" gradientTransform="matrix(0.6709 0 0 -0.4954 87.7654 23.4695)" gradientUnits="userSpaceOnUse">
		<stop  offset="0" style="stop-color:#CCCCCC"/>
		<stop  offset="1" style="stop-color:#C0C0C0"/>
	</radialGradient>
	<path class="st7" d="M11.7,123.7h9.1c2.2,0,4.9-1.1,6-2.5l7.7-9.5c0.9-1.4,0.9-3.4-0.2-4.7l-4.6-5.6L11.7,123.7z"/>
	
		<radialGradient id="SVGID_6_" cx="-107.9132" cy="-169.657" r="27.6571" gradientTransform="matrix(0.6709 0 0 -0.4954 87.7654 23.4695)" gradientUnits="userSpaceOnUse">
		<stop  offset="0" style="stop-color:#A0A0A0"/>
		<stop  offset="1" style="stop-color:#7B7B7B"/>
	</radialGradient>
	<path class="st8" d="M21.5,96.3L1.2,121.5c-0.8,1.2,0,2.2,2,2.2h8.5l18.1-22.2l-8.3-10.1C22.7,92.7,22.7,95,21.5,96.3"/>
	
		<radialGradient id="SVGID_7_" cx="-98.4624" cy="-129.9753" r="40.5381" gradientTransform="matrix(0.6709 0 0 -0.4954 87.7654 23.4695)" gradientUnits="userSpaceOnUse">
		<stop  offset="0" style="stop-color:#848484"/>
		<stop  offset="1" style="stop-color:#838383"/>
	</radialGradient>
	<path class="st9" d="M3.2,64c-2.2,0-3,1.1-1.9,2.5l33,40.5c1,1.3,1.1,3.3,0.2,4.7l8-9.9L11.7,64H3.2z"/>
	
		<radialGradient id="SVGID_8_" cx="-86.3973" cy="-120.0115" r="33.0576" gradientTransform="matrix(0.6709 0 0 -0.4954 87.7654 23.4695)" gradientUnits="userSpaceOnUse">
		<stop  offset="0" style="stop-color:#626262"/>
		<stop  offset="1" style="stop-color:#474747"/>
	</radialGradient>
	<path class="st10" d="M11.7,64l30.9,37.8l4.5-5.5c1.1-1.4,1.1-3.6,0-5L26.8,66.5c-1.1-1.4-3.8-2.5-6-2.5H11.7z"/>
</g>
<g>
	<text transform="matrix(1.3426 0 0 1 65.1162 89.3311)" class="st11 st4 st12">INASCON</text>
	<rect x="131.5" y="151.2" class="st6" width="3.7" height="0.5"/>
	<text transform="matrix(1.3426 0 0 1 92.8369 109.1611)" class="st11 st4 st12">2021</text>
</g>
<g>
	
		<radialGradient id="SVGID_9_" cx="-97.3603" cy="-307.5536" r="20.1129" gradientTransform="matrix(0.6709 0 0 -0.498 87.7654 23.2568)" gradientUnits="userSpaceOnUse">
		<stop  offset="0" style="stop-color:#FFCF4F"/>
		<stop  offset="1" style="stop-color:#F4C236"/>
	</radialGradient>
	<path class="st13" d="M10.7,187.6h9.1c2.2,0,4.9-1.1,6-2.5l7.7-9.5c0.9-1.4,0.9-3.4-0.2-4.7l-4.6-5.6L10.7,187.6z"/>
	
		<radialGradient id="SVGID_10_" cx="-109.4122" cy="-297.3397" r="27.6571" gradientTransform="matrix(0.6709 0 0 -0.498 87.7654 23.2568)" gradientUnits="userSpaceOnUse">
		<stop  offset="0" style="stop-color:#08A960"/>
		<stop  offset="1" style="stop-color:#07914B"/>
	</radialGradient>
	<path class="st14" d="M20.5,160.1L0.2,185.3c-0.8,1.2,0,2.2,2,2.2h8.5l18.1-22.3l-8.3-10.2C21.7,156.5,21.7,158.7,20.5,160.1"/>
	
		<radialGradient id="SVGID_11_" cx="-99.9615" cy="-257.658" r="40.5382" gradientTransform="matrix(0.6709 0 0 -0.498 87.7654 23.2568)" gradientUnits="userSpaceOnUse">
		<stop  offset="0" style="stop-color:#567FC0"/>
		<stop  offset="1" style="stop-color:#557FC0"/>
	</radialGradient>
	<path class="st15" d="M2.2,127.6c-2.2,0-3,1.1-1.9,2.5l33,40.7c1,1.3,1.1,3.3,0.2,4.7l8-9.9l-30.9-38H2.2z"/>
	
		<radialGradient id="SVGID_12_" cx="-87.8962" cy="-247.6941" r="33.0576" gradientTransform="matrix(0.6709 0 0 -0.498 87.7654 23.2568)" gradientUnits="userSpaceOnUse">
		<stop  offset="0" style="stop-color:#E14C40"/>
		<stop  offset="1" style="stop-color:#CD392D"/>
	</radialGradient>
	<path class="st16" d="M10.7,127.6l30.9,38l4.5-5.5c1.1-1.4,1.1-3.6,0-5l-20.2-25c-1.1-1.4-3.8-2.5-6-2.5H10.7z"/>
	<text transform="matrix(1.3472 0 0 1 64.1106 152.9014)" class="st17 st4 st5">INASCON</text>
	<rect x="121.9" y="187.1" class="st6" width="3.7" height="0.5"/>
	<text transform="matrix(1.3472 0 0 1 91.8313 172.6626)" class="st17 st4 st5">2021</text>
</g>
</svg>
