<?xml version="1.0" encoding="UTF-8" standalone="no"?><!DOCTYPE svg PUBLIC "-//W3C//DTD SVG 1.1//EN" "http://www.w3.org/Graphics/SVG/1.1/DTD/svg11.dtd"><svg width="100%" height="100%" viewBox="0 0 13125 13125" version="1.1" xmlns="http://www.w3.org/2000/svg" xmlns:xlink="http://www.w3.org/1999/xlink" xml:space="preserve" xmlns:serif="http://www.serif.com/" style="fill-rule:evenodd;clip-rule:evenodd;stroke-linejoin:round;stroke-miterlimit:2;"><g><g><path d="M11474.2,10124.6c-0,-606.352 419.627,-1116.59 992.976,-1276.9l-0,-4834.66c-216.995,-60.823 -411.476,-171.205 -569.855,-318.757l-4329.81,2417.89c25.62,102.123 41.148,208.375 41.148,318.006c-0,606.351 -419.628,1116.96 -992.977,1276.9l0,4835.04c216.996,60.447 411.476,171.205 569.855,318.381l4329.81,-2417.52c-26.008,-102.123 -41.147,-208.375 -41.147,-318.381" style="fill:#dbe600;fill-rule:nonzero;"/></g><g><path d="M4858.39,6430.36c-0,-110.006 15.139,-216.259 41.147,-318.381l-4329.81,-2417.52c-158.38,147.176 -352.86,257.934 -569.855,318.381l-0,4835.04c573.348,159.942 992.976,670.553 992.976,1276.9c-0,109.631 -15.528,215.883 -41.148,318.005l4329.81,2417.9c158.379,-147.552 352.86,-257.934 569.855,-318.757l0,-4834.66c-573.349,-160.317 -992.976,-670.553 -992.976,-1276.9" style="fill:#d5d5d5;fill-rule:nonzero;"/></g><g><path d="M11515.4,2418.08l-4329.81,-2417.89c-247.273,229.775 -582.276,371.695 -952.216,371.695c-369.552,0 -704.944,-141.92 -951.829,-371.695l-4329.81,2417.89c26.009,102.123 41.148,208.375 41.148,318.382c-0,109.631 -15.139,215.883 -41.148,318.006l4329.81,2417.89c246.885,-229.775 582.277,-371.695 951.829,-371.695c369.94,0 704.943,141.92 952.216,371.695l4329.81,-2417.89c-26.008,-102.123 -41.147,-208.375 -41.147,-318.006c-0,-110.007 15.139,-216.259 41.147,-318.382" style="fill:#007db5;fill-rule:nonzero;"/></g></g></svg>